<?xml version="1.0" encoding="utf-8"?>
<!-- Generator: Adobe Illustrator 16.0.0, SVG Export Plug-In . SVG Version: 6.00 Build 0)  -->
<!DOCTYPE svg PUBLIC "-//W3C//DTD SVG 1.1//EN" "http://www.w3.org/Graphics/SVG/1.1/DTD/svg11.dtd">
<svg version="1.1" id="Layer_1" xmlns:sketch="http://www.bohemiancoding.com/sketch/ns"
	 xmlns="http://www.w3.org/2000/svg" xmlns:xlink="http://www.w3.org/1999/xlink" x="0px" y="0px" width="34px" height="34px"
	 viewBox="0 0 34 34" enable-background="new 0 0 34 34" xml:space="preserve">
<title>Page 1</title>
<desc>Created with Sketch.</desc>
<g>
	<path fill-rule="evenodd" clip-rule="evenodd" fill="#FFFFFF" d="M25.738,0.125H6.653c-3.667,0-6.638,2.972-6.638,6.638v19.086
		c0,3.666,2.972,6.638,6.638,6.638h19.085c3.666,0,6.638-2.972,6.638-6.638V6.763C32.376,3.097,29.404,0.125,25.738,0.125z
		 M28.734,24.28c0,2.648-2.146,4.795-4.795,4.795H8.452c-2.648,0-4.795-2.146-4.795-4.795V8.331c0-2.648,2.147-4.794,4.795-4.794
		h15.488c2.648,0,4.795,2.146,4.795,4.794V24.28z"/>
	<path fill-rule="evenodd" clip-rule="evenodd" fill="#FFFFFF" d="M8.706,2.66c0,0,6.823,4.703-1.936,12.816
		c0,0,9.588,7.375,2.028,14.936h4.426c0,0,6.476-8.76-2.478-15.121c0,0,7.444-5.9,1.734-13.369L8.706,2.66z"/>
	<path fill-rule="evenodd" clip-rule="evenodd" fill="#FFFFFF" d="M26.892,1.922c0,0-12.632,14.66,0,28.49h-3.853
		c0,0-13.816-12.438-0.297-28.49H26.892z"/>
</g>
</svg>
